# xmcd
#
# Track frame offsets:
#	150
#	12151
#	24965
#	39853
#	52774
#	66684
#	78889
#	91259
#	104573
#	117661
#	131340
#	145244
#	157203
#	169896
#	182486
#	195148
#	209118
#	222672
#	235423
#	249083
#	261710
#	274184
#	284407
#	296082
#	310415
#
# Disc length: 4329 seconds
#
# Revision: 1
# Processed by: cddbd v1.5.2PL0 Copyright (c) Steve Scherf et al.
# Submitted via: audiograbber 1.83.01
#
DISCID=7d10e719
DTITLE=John Lee Hooker - The Boogie Man [CD3) Queen Bee
DYEAR=2006
DGENRE=Blues
TTITLE0=Let Your Daddy Ride
TTITLE1=She Left Me By Myself
TTITLE2=No Mortgage On My Soul
TTITLE3=My Baby's Got Somethin'
TTITLE4=Decoration Day Blues
TTITLE5=I Gotta Be Comin' Back
TTITLE6=Crying All Night
TTITLE7=Come Back Baby
TTITLE8=Do My Baby Think Of Me
TTITLE9=I Don't Be Welcome Here
TTITLE10=Three Long Years Today
TTITLE11=Strike Blues
TTITLE12=Turnin' Gray Blues
TTITLE13=The Story Of A Married Woman
TTITLE14=It's A Crime And A Shame
TTITLE15=Throw This Old Dog A Bone
TTITLE16=Just Like A Woman
TTITLE17=Moon Is Rising
TTITLE18=Thinking Blues
TTITLE19=Don't You Remember Me
TTITLE20=Mad Man Blues
TTITLE21=Hey Boogie
TTITLE22=Queen Bee
TTITLE23=Can I Say Hello
TTITLE24=Grinder Man
EXTD=
EXTT0=
EXTT1=
EXTT2=
EXTT3=
EXTT4=
EXTT5=
EXTT6=
EXTT7=
EXTT8=
EXTT9=
EXTT10=
EXTT11=
EXTT12=
EXTT13=
EXTT14=
EXTT15=
EXTT16=
EXTT17=
EXTT18=
EXTT19=
EXTT20=
EXTT21=
EXTT22=
EXTT23=
EXTT24=
PLAYORDER=
